<?xml version="1.0" standalone="no"?><!DOCTYPE svg PUBLIC "-//W3C//DTD SVG 1.1//EN" "http://www.w3.org/Graphics/SVG/1.1/DTD/svg11.dtd"><svg t="1524535596151" class="icon" style="" viewBox="0 0 1024 1024" version="1.1" xmlns="http://www.w3.org/2000/svg" p-id="3412" xmlns:xlink="http://www.w3.org/1999/xlink" width="200" height="200"><defs><style type="text/css"></style></defs><path d="M760.9 194.6H258.7c-30.6 0-55.6 25-55.6 55.6v376.4c0 30.6 25 55.6 55.6 55.6h159.1v101.2H334c-12.7 0-23 10.4-23 23s10.4 23 23 23h351.7c12.7 0 23-10.4 23-23s-10.4-23-23-23h-83.8V682.3H761c30.6 0 55.6-25 55.6-55.6V250.2c-0.1-30.5-25.1-55.6-55.7-55.6zM509.8 617.9c10.2 0 18.4 8.2 18.4 18.4s-8.2 18.4-18.4 18.4-18.4-8.2-18.4-18.4 8.3-18.4 18.4-18.4z" fill="gray" p-id="3413"></path></svg>