<?xml version="1.0" standalone="no"?><!DOCTYPE svg PUBLIC "-//W3C//DTD SVG 1.1//EN" "http://www.w3.org/Graphics/SVG/1.1/DTD/svg11.dtd"><svg t="1524535619916" class="icon" style="" viewBox="0 0 1024 1024" version="1.1" xmlns="http://www.w3.org/2000/svg" p-id="3865" xmlns:xlink="http://www.w3.org/1999/xlink" width="200" height="200"><defs><style type="text/css"></style></defs><path d="M139.9 813.1h750.2L837.5 721h-65.7c0.4-2.1 0.7-4.3 0.7-6.6V451.2c0-1.3-0.2-2.6-0.4-3.8h54.1c24.8 0 34.6-32.2 13.9-45.9L529 193.4c-8.4-5.6-19.4-5.6-27.9 0L190 401.4c-20.6 13.8-10.9 45.9 13.9 45.9h42.5c-0.2 1.3-0.4 2.5-0.4 3.8v263.2c0 2.3 0.2 4.5 0.7 6.6h-45.5l-61.3 92.2zM465 447.3h88.5c-0.2 1.3-0.4 2.5-0.4 3.8v263.2c0 2.3 0.2 4.5 0.7 6.6h-89.1c0.4-2.1 0.7-4.3 0.7-6.6V451.2c0-1.3-0.3-2.6-0.4-3.9zM707.3 721h-89.1c0.4-2.1 0.7-4.3 0.7-6.6V451.2c0-1.3-0.2-2.6-0.4-3.8H707c-0.2 1.3-0.4 2.5-0.4 3.8v263.2c0.1 2.3 0.3 4.5 0.7 6.6z m-193-437.1c26.7 0 48.5 21.8 48.5 48.5s-21.8 48.5-48.5 48.5-48.5-21.8-48.5-48.5 21.8-48.5 48.5-48.5zM311.4 447.3h88.5c-0.2 1.3-0.4 2.5-0.4 3.8v263.2c0 2.3 0.2 4.5 0.7 6.6h-89.1c0.4-2.1 0.7-4.3 0.7-6.6V451.2c0-1.3-0.2-2.6-0.4-3.9z" fill="#1B8AE0" p-id="3866"></path></svg>