<?xml version="1.0" standalone="no"?><!DOCTYPE svg PUBLIC "-//W3C//DTD SVG 1.1//EN" "http://www.w3.org/Graphics/SVG/1.1/DTD/svg11.dtd"><svg t="1524535684178" class="icon" style="" viewBox="0 0 1024 1024" version="1.1" xmlns="http://www.w3.org/2000/svg" p-id="5570" xmlns:xlink="http://www.w3.org/1999/xlink" width="200" height="200"><defs><style type="text/css"></style></defs><path d="M407 195H289.3c-50.6 0-92.1 41.4-92.1 92.1v117.7c0 50.6 41.4 92.1 92.1 92.1H407c50.6 0 92.1-41.4 92.1-92.1V287.1c0-50.6-41.4-92.1-92.1-92.1zM733 195H615.3c-50.6 0-92.1 41.4-92.1 92.1v117.7c0 50.6 41.4 92.1 92.1 92.1H733c50.6 0 92.1-41.4 92.1-92.1V287.1c0-50.6-41.4-92.1-92.1-92.1zM407 521H289.3c-50.6 0-92.1 41.4-92.1 92.1v117.7c0 50.6 41.4 92.1 92.1 92.1H407c50.6 0 92.1-41.4 92.1-92.1V613.1c0-50.7-41.4-92.1-92.1-92.1zM733 521H615.3c-50.6 0-92.1 41.4-92.1 92.1v117.7c0 50.6 41.4 92.1 92.1 92.1H733c50.6 0 92.1-41.4 92.1-92.1V613.1c0-50.7-41.4-92.1-92.1-92.1z" fill="#1B8AE0" p-id="5571"></path></svg>