<?xml version="1.0" standalone="no"?><!DOCTYPE svg PUBLIC "-//W3C//DTD SVG 1.1//EN" "http://www.w3.org/Graphics/SVG/1.1/DTD/svg11.dtd"><svg t="1524535614974" class="icon" style="" viewBox="0 0 1024 1024" version="1.1" xmlns="http://www.w3.org/2000/svg" p-id="3751" xmlns:xlink="http://www.w3.org/1999/xlink" width="200" height="200"><defs><style type="text/css"></style></defs><path d="M551 515.1c-4.1-12.6-17.7-21.1-32.8-21.8-0.9-0.1-1.8-0.1-2.7-0.1-0.9 0-1.8 0-2.7 0.1-15.1 0.8-28.7 9.2-32.8 21.8L378.6 826.2c-5.1 15.8 6.4 32.2 25.6 36.4 19.2 4.2 39.2-5.2 44.3-21l67-205.5 67 205.5c5.1 15.8 25.1 25.3 44.3 21 19.2-4.2 30.7-20.6 25.6-36.4L551 515.1zM355.2 416.1l58.4 63.4c3.8-3.5 94.1-84.6 194.6 1.1l55.9-65.5c-126.4-107.9-257.3-46.5-308.9 1z" fill="#1B8AE0" p-id="3752"></path><path d="M195.8 317.2l58.5 63.2c0.6-0.6 63.3-57.9 158.7-86.8 125.5-38 244.5-8.6 353.9 87.5l56.9-64.7c-318-279.4-624.9-2.1-628 0.8z" fill="#1B8AE0" p-id="3753"></path></svg>