<?xml version="1.0" standalone="no"?><!DOCTYPE svg PUBLIC "-//W3C//DTD SVG 1.1//EN" "http://www.w3.org/Graphics/SVG/1.1/DTD/svg11.dtd"><svg t="1524535609296" class="icon" style="" viewBox="0 0 1024 1024" version="1.1" xmlns="http://www.w3.org/2000/svg" p-id="3638" xmlns:xlink="http://www.w3.org/1999/xlink" width="200" height="200"><defs><style type="text/css"></style></defs><path d="M850.4 240.7h-676c-25.4 0-46.2 20.8-46.2 46.2v477.9c0 25.4 20.8 46.2 46.2 46.2h675.9c25.4 0 46.2-20.8 46.2-46.2V286.9c0.1-25.4-20.7-46.2-46.1-46.2z m-442.9 98.9c44.7 0 80.9 36.2 80.9 80.9s-36.2 80.9-80.9 80.9-80.9-36.2-80.9-80.9 36.2-80.9 80.9-80.9zM247 708c0-92.4 71.9-167.3 160.5-167.3S568 615.6 568 708H247z m511-50.8h-78c-15.2 0-27.7-12.5-27.7-27.7s12.5-27.7 27.7-27.7h78c15.2 0 27.7 12.5 27.7 27.7s-12.5 27.7-27.7 27.7z m0-110.5H626c-15.2 0-27.7-12.5-27.7-27.7s12.5-27.7 27.7-27.7h132c15.2 0 27.7 12.5 27.7 27.7 0 15.3-12.5 27.7-27.7 27.7z m0-110.4H584.7c-15.2 0-27.7-12.5-27.7-27.7s12.5-27.7 27.7-27.7H758c15.2 0 27.7 12.5 27.7 27.7s-12.5 27.7-27.7 27.7z" fill="#1B8AE0" p-id="3639"></path></svg>