<?xml version="1.0" standalone="no"?><!DOCTYPE svg PUBLIC "-//W3C//DTD SVG 1.1//EN" "http://www.w3.org/Graphics/SVG/1.1/DTD/svg11.dtd"><svg t="1524535665269" class="icon" style="" viewBox="0 0 1024 1024" version="1.1" xmlns="http://www.w3.org/2000/svg" p-id="5002" xmlns:xlink="http://www.w3.org/1999/xlink" width="200" height="200"><defs><style type="text/css"></style></defs><path d="M249.716911 291.794222a86.2 86.2 0 1 0 170.176033-27.602129 86.2 86.2 0 1 0-170.176033 27.602129Z" fill="#1B8AE0" p-id="5003"></path><path d="M334.8 380.7c-94.4 0-171 79.8-171 178.2h342c0-98.4-76.6-178.2-171-178.2z" fill="#1B8AE0" p-id="5004"></path><path d="M689.2 539.6m-86.2 0a86.2 86.2 0 1 0 172.4 0 86.2 86.2 0 1 0-172.4 0Z" fill="#1B8AE0" p-id="5005"></path><path d="M689.2 642.4c-94.4 0-171 79.8-171 178.2h342c0-98.4-76.5-178.2-171-178.2zM306.7 581.2l-65.3 17.3c30.1 107 124.4 187 238.7 195.9l20.2-66.6c-92-0.5-169.4-62.3-193.6-146.6zM501.3 322.7c73.7 0 138.2 39.4 173.7 98.3l63.6-24.9c-45.8-83.9-134.9-140.9-237.2-140.9-25.2 0-49.5 3.5-72.6 10l17 65.3c17.6-5.1 36.3-7.8 55.5-7.8z" fill="#1B8AE0" p-id="5006"></path></svg>