<?xml version="1.0" standalone="no"?><!DOCTYPE svg PUBLIC "-//W3C//DTD SVG 1.1//EN" "http://www.w3.org/Graphics/SVG/1.1/DTD/svg11.dtd"><svg t="1524535640591" class="icon" style="" viewBox="0 0 1024 1024" version="1.1" xmlns="http://www.w3.org/2000/svg" p-id="4319" xmlns:xlink="http://www.w3.org/1999/xlink" width="200" height="200"><defs><style type="text/css"></style></defs><path d="M716.3 345.9H197c-29.3 0-53.4 24-53.4 53.4v348.6c0 29.3 24 53.4 53.4 53.4h519.4c29.3 0 53.4-24 53.4-53.4V399.3c-0.1-29.4-24.1-53.4-53.5-53.4z m-88.9 79.7c22 0 39.8 17.8 39.8 39.8s-17.8 39.8-39.8 39.8c-22 0-39.8-17.8-39.8-39.8s17.8-39.8 39.8-39.8zM200.5 710.2s24.4-34.2 36.5-45.5c17.4-16.2 48.7-34.2 85.2-34.2 73.1 0 170.5 56.9 170.5 56.9s35.5-34.2 109.6-34.2c73.1 0 121.8 56.9 121.8 56.9H200.5z" fill="#1B8AE0" p-id="4320"></path><path d="M860.5 291.2L352.5 183c-28.7-6.1-57.2 12.4-63.3 41.1l-18.7 87.7h479.9c29.3 0 53.4 24 53.4 53.4v348.6c0 6.4-1.3 12.4-3.4 18.1 14-7 25-19.9 28.5-36.4l72.6-341c6.2-28.7-12.3-57.2-41-63.3z" fill="#1B8AE0" p-id="4321"></path></svg>