<?xml version="1.0" standalone="no"?><!DOCTYPE svg PUBLIC "-//W3C//DTD SVG 1.1//EN" "http://www.w3.org/Graphics/SVG/1.1/DTD/svg11.dtd"><svg t="1524535635882" class="icon" style="" viewBox="0 0 1024 1024" version="1.1" xmlns="http://www.w3.org/2000/svg" p-id="4206" xmlns:xlink="http://www.w3.org/1999/xlink" width="200" height="200"><defs><style type="text/css"></style></defs><path d="M721.6 173.4h-62.5v26.4c0 14.5-11.9 26.4-26.4 26.4s-26.4-11.9-26.4-26.4v-26.4h-194v26.4c0 14.5-11.9 26.4-26.5 26.4-14.5 0-26.4-11.9-26.4-26.4v-26.4h-62.5c-43.2 0-78.5 35.3-78.5 78.5v524.6c0 43.2 35.3 78.5 78.5 78.5h424.8c43.2 0 78.5-35.3 78.5-78.5V251.9c-0.1-43.2-35.4-78.5-78.6-78.5z m-38.7 254.3l-169 209.2c-4.7 5.8-11.1 9.2-17.9 10.5-9.5 3.5-20.6 2.1-29-4.7l-114.6-92.5c-12.8-10.3-14.8-29.2-4.5-42s29.2-14.8 42-4.5l93.6 75.6 152.8-189.2c10.3-12.8 29.2-14.8 42-4.5 12.9 10.4 14.9 29.3 4.6 42.1z" fill="#1B8AE0" p-id="4207"></path></svg>