<?xml version="1.0" standalone="no"?><!DOCTYPE svg PUBLIC "-//W3C//DTD SVG 1.1//EN" "http://www.w3.org/Graphics/SVG/1.1/DTD/svg11.dtd"><svg t="1524535629102" class="icon" style="" viewBox="0 0 1024 1024" version="1.1" xmlns="http://www.w3.org/2000/svg" p-id="4091" xmlns:xlink="http://www.w3.org/1999/xlink" width="200" height="200"><defs><style type="text/css"></style></defs><path d="MNaN NaNaNaN NaN NaN 1 0 NaN NaN NaN NaN NaN 1 0 NaN NaNZ" fill="#1B8AE0" p-id="4092"></path><path d="M618.2 584.4c-125.7 0-227.6 94-227.6 209.9 0 0 89.9 29.8 235.9 29.8s219.3-29.8 219.3-29.8c0-115.9-101.9-209.9-227.6-209.9z" fill="#1B8AE0" p-id="4093"></path><path d="M528.2 568.3c-38.5-24.2-64.3-67-64.3-115.8 0-72.7 57-132.1 128.6-136.4v-69.2c0-32.4-26.5-59-59-59H214.7c-32.4 0-59 26.5-59 59v393.8c0 32.4 26.5 59 59 59h153.9c29.7-62.9 88.1-111.5 159.6-131.4zM314.6 293.8h68.5c14.6 0 26.5 11.9 26.5 26.5s-11.9 26.5-26.5 26.5h-68.5c-14.6 0-26.5-11.9-26.5-26.5s11.9-26.5 26.5-26.5z m0 119.1h119.1c14.6 0 26.5 11.9 26.5 26.5s-11.9 26.5-26.5 26.5H314.6c-14.6 0-26.5-11.9-26.5-26.5s11.9-26.5 26.5-26.5z m0 172.1c-14.6 0-26.5-11.9-26.5-26.5S300 532 314.6 532h119.1c14.6 0 26.5 11.9 26.5 26.5S448.3 585 433.7 585H314.6z" fill="#1B8AE0" p-id="4094"></path></svg>