<?xml version="1.0" standalone="no"?><!DOCTYPE svg PUBLIC "-//W3C//DTD SVG 1.1//EN" "http://www.w3.org/Graphics/SVG/1.1/DTD/svg11.dtd"><svg t="1524535657032" class="icon" style="" viewBox="0 0 1024 1024" version="1.1" xmlns="http://www.w3.org/2000/svg" p-id="4775" xmlns:xlink="http://www.w3.org/1999/xlink" width="200" height="200"><defs><style type="text/css"></style></defs><path d="M879.1 387.4L573.4 263.9c-34.8-14-102.4-9.9-150.3 9.2L161.7 377.3c-47.9 19.1-58.6 46.2-23.8 60.3L443.6 561c34.8 14 102.4 9.9 150.3-9.2l192.2-76.6v132.3c0 10.2 8.2 18.5 18.1 18.5 10 0 18.1-8.3 18.1-18.5V460.7l32.8-13.1c48-19.1 58.8-46.2 24-60.2z" fill="#1B8AE0" p-id="4776"></path><path d="M454.7 611.1l-160.1-64.6V700c0 37 96.3 103.7 213.9 103.7S722.4 751.8 722.4 700V546.5l-146.7 57.3c-39.5 15.8-87.3 20.2-121 7.3z" fill="#1B8AE0" p-id="4777"></path></svg>