<?xml version="1.0" standalone="no"?><!DOCTYPE svg PUBLIC "-//W3C//DTD SVG 1.1//EN" "http://www.w3.org/Graphics/SVG/1.1/DTD/svg11.dtd"><svg t="1524535661785" class="icon" style="" viewBox="0 0 1024 1024" version="1.1" xmlns="http://www.w3.org/2000/svg" p-id="4889" xmlns:xlink="http://www.w3.org/1999/xlink" width="200" height="200"><defs><style type="text/css"></style></defs><path d="M512.3 147.5c-197.6 0-357.8 160.2-357.8 357.8s160.2 357.8 357.8 357.8 357.8-160.2 357.8-357.8-160.2-357.8-357.8-357.8z m142.9 399.3c0 20-16.3 36.3-36.3 36.3H470.8c-20 0-36.3-16.3-36.3-36.3v-8.7c0-0.5 0.1-1 0.1-1.5s-0.1-1-0.1-1.5V329c0-20 16.3-36.3 36.3-36.3h8.7c20 0 36.3 16.3 36.3 36.3v172.8h103.1c20 0 36.3 16.3 36.3 36.3v8.7z" fill="gray" p-id="4890"></path></svg>