<?xml version="1.0" standalone="no"?><!DOCTYPE svg PUBLIC "-//W3C//DTD SVG 1.1//EN" "http://www.w3.org/Graphics/SVG/1.1/DTD/svg11.dtd"><svg t="1524535652517" class="icon" style="" viewBox="0 0 1024 1024" version="1.1" xmlns="http://www.w3.org/2000/svg" p-id="4661" xmlns:xlink="http://www.w3.org/1999/xlink" width="200" height="200"><defs><style type="text/css"></style></defs><path d="M499.2 386.6c0 73.3 59.4 132.7 132.7 132.7 73.3 0 132.7-59.4 132.7-132.7s-59.4-132.7-132.7-132.7c-73.3-0.1-132.7 59.3-132.7 132.7zM615.2 561.4C464.6 561.4 342.4 674 342.4 813c0 0 107.7 35.7 282.7 35.7S888 813 888 813c0-139-122.1-251.6-272.8-251.6z" fill="gray" p-id="4662"></path><path d="M450.9 567.5c27.1-16.8 57.6-29.3 90.3-36.5-30.4-15.2-55.4-39.5-71.2-69.5-12.7-1.7-25.6-2.8-38.8-2.8-150.7 0-272.8 112.6-272.8 251.6 0 0 54 17.8 147.4 28.3 21.8-73.6 74.8-135 145.1-171.1zM431.2 433.2c9.1 0 17.9-1 26.4-2.8-4-14-6.2-28.7-6.2-43.9 0-57.6 30.4-108.1 75.9-136.7 6.5-4.7 13.3-9 20.5-12.4-22.4-41.5-66.2-69.7-116.7-69.7-73.3 0-132.7 59.4-132.7 132.7s59.5 132.8 132.8 132.8z" fill="gray" p-id="4663"></path></svg>