<?xml version="1.0" standalone="no"?><!DOCTYPE svg PUBLIC "-//W3C//DTD SVG 1.1//EN" "http://www.w3.org/Graphics/SVG/1.1/DTD/svg11.dtd"><svg t="1524535603010" class="icon" style="" viewBox="0 0 1024 1024" version="1.1" xmlns="http://www.w3.org/2000/svg" p-id="3525" xmlns:xlink="http://www.w3.org/1999/xlink" width="200" height="200"><defs><style type="text/css"></style></defs><path d="M869.1 692L579.7 205.4c-32.1-54-110.3-54-142.5 0L147.9 692c-32.9 55.2 7 125.2 71.2 125.2h578.8c64.2 0 104.1-70 71.2-125.2z m-359.5 52.2c-22.6 0-41-18.5-41-41 0-22.6 18.5-41 41-41 22.6 0 41 18.5 41 41 0.1 22.6-18.4 41-41 41z m41.1-186.9c0 22.6-18.5 41-41 41-22.6 0-41-18.5-41-41V347.5c0-22.6 18.5-41 41-41 22.6 0 41 18.5 41 41v209.8z" fill="#1B8AE0" p-id="3526"></path></svg>