<?xml version="1.0" standalone="no"?><!DOCTYPE svg PUBLIC "-//W3C//DTD SVG 1.1//EN" "http://www.w3.org/Graphics/SVG/1.1/DTD/svg11.dtd"><svg t="1524535648837" class="icon" style="" viewBox="0 0 1024 1024" version="1.1" xmlns="http://www.w3.org/2000/svg" p-id="4548" xmlns:xlink="http://www.w3.org/1999/xlink" width="200" height="200"><defs><style type="text/css"></style></defs><path d="M513 167.6c-193.6 0-350.6 157-350.6 350.6s157 350.6 350.6 350.6c193.6 0 350.6-157 350.6-350.6S706.6 167.6 513 167.6z m118.2 367.9c14.4 0 26.3 11.8 26.3 26.3S645.6 588 631.2 588h-91.9v96.3c0 14.4-11.8 26.3-26.3 26.3s-26.3-11.8-26.3-26.3V588h-91.9c-14.4 0-26.3-11.8-26.3-26.3s11.8-26.3 26.3-26.3h91.9v-43.8h-91.9c-14.4 0-26.3-11.8-26.3-26.3 0-14.4 11.8-26.3 26.3-26.3H470l-68.5-68.5c-10.2-10.2-10.2-26.9 0-37.1 10.2-10.2 26.9-10.2 37.1 0l81.7 81.7 81.7-81.7c10.2-10.2 26.9-10.2 37.1 0 10.2 10.2 10.2 26.9 0 37.1L570.6 439h60.6c14.4 0 26.3 11.8 26.3 26.3 0 14.4-11.8 26.3-26.3 26.3h-91.9v43.8h91.9z" fill="#1B8AE0" p-id="4549"></path></svg>